<svg xmlns="http://www.w3.org/2000/svg" viewBox="0 0 512 512">
  <defs>
    <linearGradient id="bg" x1="0" y1="0" x2="1" y2="1">
      <stop offset="0%" stop-color="#e23744"/>
      <stop offset="100%" stop-color="#c81e2c"/>
    </linearGradient>
    <filter id="shadow" x="-10%" y="-10%" width="120%" height="130%">
      <feDropShadow dx="0" dy="8" stdDeviation="12" flood-opacity="0.3"/>
    </filter>
  </defs>
  <rect width="512" height="512" rx="128" ry="128" fill="url(#bg)"/>
  <ellipse cx="256" cy="270" rx="110" ry="100" fill="#ff4d4d" filter="url(#shadow)"/>
  <ellipse cx="230" cy="250" rx="35" ry="30" fill="#ff6666" opacity="0.6"/>
  <path d="M256 175 Q256 160 245 155 Q235 150 240 140 Q250 135 256 145 Q262 135 272 140 Q277 150 267 155 Q256 160 256 175" fill="#2d8a3e"/>
  <path d="M256 175 Q230 165 215 175 Q210 180 220 182 Q240 178 256 175" fill="#2d8a3e"/>
  <path d="M256 175 Q282 165 297 175 Q302 180 292 182 Q272 178 256 175" fill="#2d8a3e"/>
  <path d="M256 175 Q256 155 270 148 Q280 145 275 155 Q265 160 256 175" fill="#2d8a3e"/>
  <path d="M320 320 Q360 300 380 330 Q390 350 370 360 Q350 370 340 350 Q330 340 320 320" fill="#4CAF50"/>
  <path d="M350 335 Q365 325 375 340" fill="none" stroke="#2d8a3e" stroke-width="3" stroke-linecap="round"/>
  <ellipse cx="210" cy="220" rx="15" ry="10" fill="white" opacity="0.15"/>
</svg>